<?xml version="1.0" encoding="UTF-8" standalone="no"?><!DOCTYPE svg PUBLIC "-//W3C//DTD SVG 1.1//EN" "http://www.w3.org/Graphics/SVG/1.1/DTD/svg11.dtd"><svg width="100%" height="100%" viewBox="0 0 641 74" version="1.1" xmlns="http://www.w3.org/2000/svg" xmlns:xlink="http://www.w3.org/1999/xlink" xml:space="preserve" style="fill-rule:evenodd;clip-rule:evenodd;stroke-linejoin:round;stroke-miterlimit:1.41421;"><rect id="Artboard1" x="0" y="0" width="640.896" height="73.824" style="fill:none;"/><g><path d="M26.88,1.344l-26.88,0l0,67.2l26.88,0c18.528,0 32.64,-14.592 32.64,-33.6c0,-19.008 -14.112,-33.6 -32.64,-33.6Zm0,52.416l-11.52,0l0,-37.632l11.52,0c10.56,0 17.856,7.296 17.856,18.816c0,11.52 -7.296,18.816 -17.856,18.816Z" style="fill:#fff;fill-rule:nonzero;"/><path d="M103.488,68.544l16.512,0l-14.304,-24.672c7.392,-3.744 12.384,-11.232 12.384,-19.488c0,-12.768 -10.272,-23.04 -23.04,-23.04l-26.88,0l0,67.2l15.36,0l0,-22.08l7.296,0l12.672,22.08Zm-19.968,-52.8l11.52,0c4.224,0 7.68,3.744 7.68,8.64c0,4.896 -3.456,8.64 -7.68,8.64l-11.52,0l0,-17.28Z" style="fill:#fff;fill-rule:nonzero;"/><path d="M169.92,68.544l16.8,0l-22.848,-67.2l-19.584,0l-22.848,67.2l16.8,0l3.36,-10.56l24.96,0l3.36,10.56Zm-23.712,-24.96l7.872,-24.672l7.872,24.672l-15.744,0Z" style="fill:#fff;fill-rule:nonzero;"/><path d="M202.368,68.544l17.472,0l10.944,-39.648l10.944,39.648l17.472,0l18.528,-67.2l-16.128,0l-11.616,47.04l-12.96,-47.04l-12.48,0l-12.96,47.04l-11.616,-47.04l-16.128,0l18.528,67.2Z" style="fill:#fff;fill-rule:nonzero;"/><path d="M306.048,69.888c14.592,0 24.96,-7.68 24.96,-20.64c0,-14.208 -11.424,-17.76 -21.6,-20.832c-10.464,-3.168 -12.096,-5.28 -12.096,-8.352c0,-2.688 2.4,-5.088 7.2,-5.088c6.144,0 9.312,2.976 11.616,7.776l12.96,-7.584c-4.896,-9.888 -13.536,-15.168 -24.576,-15.168c-11.616,0 -22.56,7.488 -22.56,20.448c0,12.864 9.792,17.664 19.776,20.448c10.08,2.784 13.92,4.416 13.92,8.544c0,2.592 -1.824,5.472 -9.12,5.472c-7.584,0 -11.712,-3.744 -14.112,-9.312l-13.248,7.68c3.744,9.888 12.768,16.608 26.88,16.608Z" style="fill:#fff;fill-rule:nonzero;"/><path d="M405.216,34.944c0,-19.776 -15.648,-34.944 -34.944,-34.944c-19.296,0 -34.944,15.168 -34.944,34.944c0,19.776 15.648,34.944 34.944,34.944c5.664,0 11.04,-1.344 15.744,-3.648l7.2,7.584l11.04,-9.792l-6.72,-7.104c4.8,-5.952 7.68,-13.536 7.68,-21.984Zm-34.944,19.968c-10.944,0 -19.584,-7.968 -19.584,-19.968c0,-12 8.64,-19.968 19.584,-19.968c10.944,0 19.584,7.968 19.584,19.968c0,4.128 -1.056,7.776 -2.784,10.848l-10.752,-11.424l-11.04,9.792l9.696,10.272c-1.536,0.288 -3.072,0.48 -4.704,0.48Z" style="fill:#fff;fill-rule:nonzero;"/><path d="M439.296,69.888c14.784,0 25.92,-8.64 25.92,-23.04l0,-45.504l-15.36,0l0,44.16c0,5.088 -2.4,9.408 -10.56,9.408c-8.16,0 -10.56,-4.32 -10.56,-9.408l0,-44.16l-15.36,0l0,45.504c0,14.4 11.136,23.04 25.92,23.04Z" style="fill:#fff;fill-rule:nonzero;"/><path d="M517.056,68.544l16.8,0l-22.848,-67.2l-19.584,0l-22.848,67.2l16.8,0l3.36,-10.56l24.96,0l3.36,10.56Zm-23.712,-24.96l7.872,-24.672l7.872,24.672l-15.744,0Z" style="fill:#fff;fill-rule:nonzero;"/><path d="M574.944,68.544l16.512,0l-14.304,-24.672c7.392,-3.744 12.384,-11.232 12.384,-19.488c0,-12.768 -10.272,-23.04 -23.04,-23.04l-26.88,0l0,67.2l15.36,0l0,-22.08l7.296,0l12.672,22.08Zm-19.968,-52.8l11.52,0c4.224,0 7.68,3.744 7.68,8.64c0,4.896 -3.456,8.64 -7.68,8.64l-11.52,0l0,-17.28Z" style="fill:#fff;fill-rule:nonzero;"/><path d="M614.016,53.76l0,-11.904l24,0l0,-14.592l-24,0l0,-11.136l26.4,0l0,-14.784l-41.76,0l0,67.2l42.24,0l0,-14.784l-26.88,0Z" style="fill:#fff;fill-rule:nonzero;"/></g></svg>